<?xml version="1.0" encoding="UTF-8"?>
<!DOCTYPE svg PUBLIC "-//W3C//DTD SVG 1.1//EN" "http://www.w3.org/Graphics/SVG/1.1/DTD/svg11.dtd">
<!-- Creator: CorelDRAW -->
<svg xmlns="http://www.w3.org/2000/svg" xml:space="preserve" width="7.25815in" height="7.25111in" version="1.1" style="shape-rendering:geometricPrecision; text-rendering:geometricPrecision; image-rendering:optimizeQuality; fill-rule:evenodd; clip-rule:evenodd"
viewBox="0 0 3697.09 3693.5"
 xmlns:xlink="http://www.w3.org/1999/xlink"
 xmlns:xodm="http://www.corel.com/coreldraw/odm/2003">
 <defs>
  <style type="text/css">
   <![CDATA[
    .fil0 {fill:#FEFEFE}
    .fil1 {fill:white}
   ]]>
  </style>
 </defs>
 <g id="Layer_x0020_1">
  <metadata id="CorelCorpID_0Corel-Layer"/>
  <path class="fil0" d="M3696.95 0l0.14 2901.06 -1052.59 0c-0.09,0 -0.18,0 -0.26,0 -2.32,0 -4.37,0.77 -6.03,2.42l-789.73 790.02 -789.46 -789.76c-1.56,-1.56 -3.52,-2.68 -5.76,-2.68 -0.09,0 -0.18,0 -0.26,0l-1052.98 0 0 -2901.06 3696.95 0zm-90.88 90.88l-3515.19 -0 0 2719.3 962.1 0c0,0 0.13,0 0.26,0 27.33,0 52.13,11.27 70.04,29.31l725.19 725.46 725.46 -725.72c18.04,-17.91 42.85,-29.05 70.3,-29.05 0.13,0 0.26,0 0.26,0l961.7 0 -0.13 -2719.29z"/>
  <g id="_1753670496864">
   <path class="fil1" d="M1581.98 1474.91l-891.22 -891.22 56.61 -56.61 947.83 947.83 -947.83 947.83 -56.61 -56.61 891.22 -891.22 0 -0zm1230.44 -849.06l-944.02 1.71 0 697.57 -80.06 0 0 -777.47 1217.99 -2.22 -931.52 929.49 891.19 891.19 -56.61 56.61 -947.83 -947.86 850.9 -849.02 -0.03 0 0 0zm-1024.06 1776.36l0 -777.57 80.06 0 0 777.57 -80.06 0z"/>
  </g>
 </g>
</svg>
